<svg xmlns="http://www.w3.org/2000/svg" width="800" height="92.931" viewBox="0 0 800 92.931">
  <g id="グループ_22932" data-name="グループ 22932" transform="translate(-235.502 -163.754)">
    <path id="パス_15670" data-name="パス 15670" d="M0,.7v11.01H28.159V74.805H39.592V11.712H68.386V.7Z" transform="translate(235.502 180.817)" fill="#001976"/>
    <path id="パス_15671" data-name="パス 15671" d="M52.36.7v74.1h61.505V63.8H63.793V11.712h50.072V.7Z" transform="translate(262.326 180.817)" fill="#001976"/>
    <rect id="長方形_25492" data-name="長方形 25492" width="49.437" height="11.01" transform="translate(320.932 212.115)" fill="#001976"/>
    <path id="パス_15672" data-name="パス 15672" d="M168.421,11.931a23.792,23.792,0,0,0-8.734-8.2A24.4,24.4,0,0,0,147.672.7h-43.3v74.1h11.433V47.5h29.747a26.777,26.777,0,0,0,13.021-3.229,26.238,26.238,0,0,0,9.527-8.681,21.517,21.517,0,0,0,3.6-12.121,21.135,21.135,0,0,0-3.282-11.539M157.457,29.92a15.1,15.1,0,0,1-5.5,4.765,15.863,15.863,0,0,1-7.463,1.8H115.808l-.008-24.77h28.688a17.569,17.569,0,0,1,7.463,1.588,14.557,14.557,0,0,1,5.5,4.234,9.388,9.388,0,0,1,2.064,5.928,11.051,11.051,0,0,1-2.064,6.456" transform="translate(288.973 180.816)" fill="#001976"/>
    <path id="パス_15673" data-name="パス 15673" d="M222.521,11.931a23.781,23.781,0,0,0-8.734-8.2A24.4,24.4,0,0,0,201.772.7h-43.3v74.1h11.433V47.5h29.747a26.777,26.777,0,0,0,13.021-3.229,26.239,26.239,0,0,0,9.527-8.681,21.517,21.517,0,0,0,3.6-12.121,21.134,21.134,0,0,0-3.282-11.539M211.564,29.92a15.1,15.1,0,0,1-5.5,4.765,15.863,15.863,0,0,1-7.463,1.8H169.908V11.713H198.6A17.569,17.569,0,0,1,206.06,13.3a14.557,14.557,0,0,1,5.5,4.234,9.388,9.388,0,0,1,2.064,5.928,11.051,11.051,0,0,1-2.064,6.456" transform="translate(316.689 180.816)" fill="#001976"/>
    <path id="パス_15674" data-name="パス 15674" d="M212.59,74.805V.7H274.1v11.01H224.023V63.8H274.1v11.01Z" transform="translate(344.412 180.817)" fill="#001976"/>
    <rect id="長方形_25493" data-name="長方形 25493" width="49.437" height="11.01" transform="translate(563.247 212.115)" fill="#001976"/>
    <path id="パス_15675" data-name="パス 15675" d="M264.6,74.8V.7h11.327L336.056,61.36l-.635.953q-.529-3.176-.9-6.828t-.582-7.516q-.211-3.863-.371-7.832t-.212-7.782q-.052-3.811-.053-7.3V.7h11.433V74.8H333.2L273.81,16.371l.106-1.482q.211,1.905.423,4.551t.529,5.716q.318,3.071.582,6.3t.423,6.458q.152,3.228.151,6.087V74.8Z" transform="translate(371.057 180.817)" fill="#001976"/>
    <path id="パス_15676" data-name="パス 15676" d="M351.82,74.8V.7h11.221l33.777,41.815H392.8L426.558.7h11.221V74.8H426.346V43.364q0-8.786.423-16.513a155.843,155.843,0,0,1,1.694-15.773l1.164,4.339-31.335,38.11h-6.987l-31.335-38.11,1.165-4.339a155.878,155.878,0,0,1,1.694,15.773q.424,7.726.423,16.513V74.8Z" transform="translate(415.739 180.817)" fill="#001976"/>
    <path id="パス_15677" data-name="パス 15677" d="M421.54,74.805V.7h61.505v11.01H432.973V63.8h50.072v11.01Z" transform="translate(451.457 180.817)" fill="#001976"/>
    <rect id="長方形_25494" data-name="長方形 25494" width="49.437" height="11.01" transform="translate(879.243 212.115)" fill="#001976"/>
    <path id="パス_15678" data-name="パス 15678" d="M556.007,23.241a37.579,37.579,0,0,0-9.376-12.174,43.879,43.879,0,0,0-14.185-8.151,56.754,56.754,0,0,0-35.887,0,43.879,43.879,0,0,0-14.185,8.151,36.926,36.926,0,0,0-9.316,12.174,34.322,34.322,0,0,0-3.282,14.873,34.324,34.324,0,0,0,3.274,14.873,36.927,36.927,0,0,0,9.316,12.174,43.879,43.879,0,0,0,14.185,8.151,53.175,53.175,0,0,0,18,2.911,52.843,52.843,0,0,0,17.9-2.911,43.879,43.879,0,0,0,14.185-8.151,37.579,37.579,0,0,0,9.376-12.174,33.879,33.879,0,0,0,3.327-14.873,33.879,33.879,0,0,0-3.327-14.873m-10.76,25.513a25.86,25.86,0,0,1-6.881,8.575,33.334,33.334,0,0,1-10.48,5.716,41.019,41.019,0,0,1-13.339,2.064,41.461,41.461,0,0,1-13.384-2.064,33.193,33.193,0,0,1-10.533-5.716,25.26,25.26,0,0,1-6.828-8.575,24.119,24.119,0,0,1-2.382-10.639,24.091,24.091,0,0,1,2.374-10.639,25.259,25.259,0,0,1,6.828-8.575,33.194,33.194,0,0,1,10.533-5.716,41.513,41.513,0,0,1,13.391-2.064,41.019,41.019,0,0,1,13.339,2.064,33.334,33.334,0,0,1,10.48,5.716,25.86,25.86,0,0,1,6.881,8.575,24.461,24.461,0,0,1,0,21.278" transform="translate(476.167 180.457)" fill="#001976"/>
    <g id="グループ_22927" data-name="グループ 22927" transform="translate(968.138 163.754)">
      <circle id="楕円形_6" data-name="楕円形 6" cx="12.216" cy="12.216" r="12.216" transform="translate(10.498 9.782)" fill="#fff"/>
      <g id="グループ_22857" data-name="グループ 22857" transform="translate(0 0)">
        <path id="パス_15409" data-name="パス 15409" d="M16.94,45.97q2.586,4.536,5.529,8.855a2.6,2.6,0,0,0,.376.444,2,2,0,0,0,1.37.558,2.107,2.107,0,0,0,1.747-1q3.678-5.39,6.8-11.128A22.144,22.144,0,0,0,46.8,23.2a21.729,21.729,0,0,0-4.095-12.7Z" transform="translate(-1.635 -1.014)" fill="#31aa52"/>
        <path id="パス_15410" data-name="パス 15410" d="M23.059,31.8A7.222,7.222,0,0,1,17.4,20.088l-.017-.012L4.9,37.258a22.6,22.6,0,0,0,9.608,7.353c.416.764.845,1.521,1.276,2.277l13.3-18.31-.006-.005a7.221,7.221,0,0,1-6.02,3.23" transform="translate(-0.473 -1.938)" fill="#fbbd00"/>
        <path id="パス_15411" data-name="パス 15411" d="M4.405,10.021a21.737,21.737,0,0,0,.021,26.266L16.909,19.105Z" transform="translate(0 -0.967)" fill="#eb4132"/>
        <path id="パス_15412" data-name="パス 15412" d="M31.121,1.165,18.673,18.3l.016.012A7.225,7.225,0,0,1,30.373,26.8l0,0,12.5-17.2a22.6,22.6,0,0,0-11.755-8.43" transform="translate(-1.803 -0.112)" fill="#609af6"/>
        <path id="パス_15413" data-name="パス 15413" d="M4.873,9.051l12.5,9.084L29.825,1a23.007,23.007,0,0,0-6.736-1A22.7,22.7,0,0,0,4.873,9.051" transform="translate(-0.47 0)" fill="#4086f4"/>
        <rect id="長方形_25438" data-name="長方形 25438" width="45.168" height="54.814" transform="translate(0 0)" fill="none"/>
      </g>
    </g>
  </g>
</svg>
